<?xml version="1.0" encoding="UTF-8" standalone="no"?>
<!-- Created with Inkscape (http://www.inkscape.org/) -->

<svg
   xmlns:dc="http://purl.org/dc/elements/1.1/"
   xmlns:cc="http://creativecommons.org/ns#"
   xmlns:rdf="http://www.w3.org/1999/02/22-rdf-syntax-ns#"
   xmlns:svg="http://www.w3.org/2000/svg"
   xmlns="http://www.w3.org/2000/svg"
   xmlns:sodipodi="http://sodipodi.sourceforge.net/DTD/sodipodi-0.dtd"
   xmlns:inkscape="http://www.inkscape.org/namespaces/inkscape"
   id="svg4800"
   version="1.1"
   inkscape:version="0.91 r13725"
   width="296.52902"
   height="174.608"
   viewBox="0 0 296.52902 174.608"
   sodipodi:docname="etrice-logo-interim.svg">
  <metadata
     id="metadata4806">
    <rdf:RDF>
      <cc:Work
         rdf:about="">
        <dc:format>image/svg+xml</dc:format>
        <dc:type
           rdf:resource="http://purl.org/dc/dcmitype/StillImage" />
        <dc:title></dc:title>
      </cc:Work>
    </rdf:RDF>
  </metadata>
  <defs
     id="defs4804">
    <clipPath
       clipPathUnits="userSpaceOnUse"
       id="clipPath4163">
      <rect
         style="opacity:1;fill:#008e48;fill-opacity:1;stroke:#0000c3;stroke-width:2;stroke-linecap:butt;stroke-linejoin:miter;stroke-miterlimit:4;stroke-dasharray:none;stroke-dashoffset:0;stroke-opacity:1"
         id="rect4165"
         width="293.40866"
         height="123.54049"
         x="-682.56122"
         y="49.416195" />
    </clipPath>
  </defs>
  <sodipodi:namedview
     pagecolor="#ffffff"
     bordercolor="#666666"
     borderopacity="1"
     objecttolerance="10"
     gridtolerance="10"
     guidetolerance="10"
     inkscape:pageopacity="0"
     inkscape:pageshadow="2"
     inkscape:window-width="1342"
     inkscape:window-height="660"
     id="namedview4802"
     showgrid="false"
     showguides="true"
     inkscape:guide-bbox="true"
     inkscape:zoom="1.0573171"
     inkscape:cx="-104.2042"
     inkscape:cy="142.0612"
     inkscape:window-x="140"
     inkscape:window-y="258"
     inkscape:window-maximized="0"
     inkscape:current-layer="layer1"
     fit-margin-top="0"
     fit-margin-left="0"
     fit-margin-right="0"
     fit-margin-bottom="0">
    <sodipodi:guide
       position="130.65338,63.011272"
       orientation="0,1"
       id="guide5423" />
  </sodipodi:namedview>
  <g
     inkscape:groupmode="layer"
     id="layer1"
     inkscape:label="Layer 1"
     transform="translate(-52.357,-84.181828)">
    <path
       style="fill:#332d71;fill-opacity:1"
       d="m 106.74889,188.77496 c -9.823867,-3.51311 -14.713505,-11.28861 -14.728187,-23.42074 -0.0151,-12.46956 3.662771,-19.47358 12.861387,-24.49287 4.05414,-2.21216 5.94357,-2.6623 11.24254,-2.67841 15.18646,-0.0461 22.23035,6.82558 23.02223,22.4596 l 0.40327,7.96178 -16.48981,0 c -9.06941,0 -16.48982,0.21788 -16.48982,0.48419 0,2.24059 3.18553,7.09996 5.63222,8.59167 3.85998,2.35336 12.11179,2.41221 18.70807,0.13344 l 4.77707,-1.65031 0,5.22089 0,5.22088 -3.86715,1.57685 c -5.9664,2.43282 -19.06103,2.74256 -25.07182,0.59303 z m 18.21772,-32.90949 c -0.51304,-6.35282 -7.70595,-9.72349 -13.14483,-6.1598 -2.52835,1.65663 -5.65195,7.50514 -4.77028,8.9317 0.3475,0.56226 4.06576,0.82895 9.37412,0.67236 l 8.79819,-0.25954 z"
       id="path4826"
       inkscape:connector-curvature="0"
       sodipodi:nodetypes="ssssscsssscccsssssscs" />
    <path
       style="fill:#ed1c24;fill-opacity:1"
       d="m 135.44384,258.25173 c -5.87588,-0.68465 -13.23345,-2.34201 -19.1697,-4.31816 -34.869939,-11.60797 -59.189036,-41.78915 -63.564125,-78.88615 -0.696427,-5.90511 -0.310651,-19.74745 0.703651,-25.24827 5.024627,-27.24982 19.845207,-49.47511 42.671888,-63.991756 1.535248,-0.976341 2.791357,-1.704737 2.791357,-1.618657 0,0.08608 -1.773243,1.66716 -3.940542,3.513509 -14.558918,12.402944 -24.838733,32.670934 -27.139959,53.509984 -0.827824,7.49645 -0.381285,21.04678 0.923178,28.01402 6.720225,35.89328 31.430592,65.75051 64.245302,77.6268 11.03167,3.99257 19.8275,5.36579 31.93375,4.98551 9.52074,-0.29906 14.85473,-1.22778 22.64962,-3.94362 2.62304,-0.9139 4.82595,-1.60487 4.89533,-1.53549 0.353,0.35301 -12.92733,6.2701 -17.35043,7.73053 -12.32453,4.06937 -27.11685,5.62202 -39.64932,4.16175 z"
       id="path4826-8"
       inkscape:connector-curvature="0"
       sodipodi:nodetypes="sssssssssssscss"
       inkscape:export-xdpi="90"
       inkscape:export-ydpi="90" />
    <path
       style="fill:#ee1d25;fill-opacity:1"
       d="m 139.29988,168.72243 c -149.941187,67.5205 -74.970597,33.76025 0,0 z m 18.80702,21.02486 c -4.02168,-1.31529 -6.98513,-3.71912 -8.48718,-6.88447 -1.13203,-2.38557 -1.44327,-6.20041 -1.44327,-17.6901 l 0,-14.64864 -4.09463,0 -4.09463,0 0,-5.40719 0,-5.40719 3.86715,-0.2798 3.86715,-0.27979 0.26623,-5.50703 0.26623,-5.50703 5.80973,-1.54807 c 3.19534,-0.85143 6.45361,-1.79516 7.24059,-2.09714 1.23291,-0.47311 1.43087,0.53441 1.43087,7.28257 l 0,7.83165 5.4595,0 5.45951,0 0,5.45951 0,5.45951 -5.45951,0 -5.4595,0 0,12.08142 c 0,14.78983 0.72861,16.46842 6.93404,15.97488 l 3.98497,-0.31693 0,5.18488 c 0,2.85168 -0.39277,5.42762 -0.87282,5.72431 -1.54005,0.9518 -12.24005,1.37081 -14.67443,0.57465 z m 93.63687,-0.39767 c -7.37732,-2.08781 -13.91169,-8.33931 -16.21075,-15.50899 -0.68896,-2.14854 -0.97736,-6.44689 -0.73823,-11.00282 0.31602,-6.02103 0.8684,-8.28899 2.83698,-11.64812 5.18791,-8.8525 13.29673,-12.86695 25.75893,-12.75251 10.36564,0.0952 11.26428,0.73163 11.26428,7.97785 l 0,5.83602 -3.15548,-1.31845 c -4.34688,-1.81624 -11.23374,-1.66016 -15.05705,0.34124 -4.71116,2.46617 -7.52284,8.37122 -6.93358,14.56184 0.53538,5.62468 2.24533,8.63475 6.31477,11.11604 3.52493,2.14929 11.10233,2.37229 15.67586,0.46136 l 3.15548,-1.31845 0,5.77901 c 0,5.69586 -0.0426,5.79428 -2.95723,6.83913 -4.61513,1.65443 -15.1682,1.99124 -19.95398,0.63685 z m 44.13632,0.26052 c -5.3186,-1.05164 -8.5647,-2.91334 -12.31197,-7.06111 -4.2724,-4.72904 -5.65269,-9.11347 -5.64187,-17.92123 0.0197,-16.10425 9.82077,-26.3745 24.98548,-26.18176 13.91345,0.17682 20.80443,7.35946 22.26185,23.20406 l 0.64676,7.0314 -16.83114,0.24794 -16.83115,0.24795 1.03008,3.1532 c 1.61401,4.94065 5.93697,7.31085 13.33414,7.31085 3.36624,0 7.86127,-0.6142 9.98893,-1.36488 2.12766,-0.75068 4.02172,-1.36487 4.20903,-1.36487 0.18731,0 0.34055,2.20237 0.34055,4.89414 0,4.48581 -0.20878,4.97905 -2.50227,5.91166 -6.31083,2.56617 -15.42522,3.32683 -22.67842,1.89265 z m 15.1716,-33.04889 c 0,-9.0523 -12.54391,-11.69546 -16.7028,-3.5195 -3.43223,6.74742 -3.61089,6.5815 7.08735,6.5815 l 9.61545,0 z m 24.63759,31.64352 c -5.65252,-4.75629 -2.49998,-14.02284 4.77067,-14.02284 8.58804,0 11.68659,11.17252 4.17572,15.05655 -3.65591,1.89053 -5.76006,1.64741 -8.94639,-1.03371 z m -157.48555,-24.03193 0,-24.56778 7.27934,0 7.27934,0 0,4.54959 c 0,5.25616 0.80103,5.72017 2.72975,1.58128 2.54238,-5.45576 11.26183,-9.06375 14.3767,-5.94888 0.61185,0.61184 1.0919,3.54509 1.0919,6.67176 l 0,5.57987 -4.99367,-0.41412 c -5.8193,-0.48258 -8.65168,0.92136 -11.10603,5.50499 -1.25243,2.33897 -1.65235,5.91191 -1.93411,17.27986 l -0.35522,14.3312 -7.184,0 -7.184,0 z m 35.48678,0 0,-24.56778 7.27934,0 7.27935,0 0,24.56778 0,24.56777 -7.27935,0 -7.27934,0 z m 0.15312,-42.89873 c -5.86195,-2.90158 -8.79733,-7.86698 -8.79733,-14.88126 0,-6.37722 2.16464,-10.471081 7.45239,-14.094301 9.84185,-6.743745 24.15941,0.0727 25.52071,12.150141 1.52379,13.51904 -11.93383,22.88503 -24.17577,16.82542 z"
       id="path4826-1"
       inkscape:connector-curvature="0"
       sodipodi:nodetypes="ccssscccccccccssscccccccsscssssssssscssssscsssssssscccsssssssssscsssssccccsssscssscccccccccccccsssss"
       inkscape:export-xdpi="90"
       inkscape:export-ydpi="90" />
  </g>
</svg>
